<svg id="Layer_1" data-name="Layer 1" xmlns="http://www.w3.org/2000/svg" xmlns:xlink="http://www.w3.org/1999/xlink" viewBox="0 0 660.15 119.18"><defs><style>.cls-1{fill:url(#linear-gradient);}.cls-2{fill:url(#linear-gradient-2);}.cls-3{fill:url(#linear-gradient-3);}.cls-4{fill:url(#linear-gradient-4);}.cls-5{fill:url(#linear-gradient-5);}.cls-6{fill:url(#linear-gradient-6);}.cls-7{fill:url(#linear-gradient-7);}.cls-8,.cls-9{fill:none;stroke-miterlimit:10;}.cls-8{stroke:url(#linear-gradient-8);}.cls-9{stroke:url(#linear-gradient-9);}.cls-10{fill:url(#linear-gradient-10);}.cls-11{fill:url(#linear-gradient-11);}.cls-12{fill:url(#linear-gradient-12);}.cls-13{fill:url(#linear-gradient-13);}.cls-14{fill:url(#linear-gradient-14);}.cls-15{fill:url(#linear-gradient-15);}.cls-16{fill:url(#linear-gradient-16);}.cls-17{fill:url(#linear-gradient-17);}.cls-18{fill:url(#linear-gradient-18);}.cls-19{fill:url(#linear-gradient-19);}.cls-20{fill:url(#linear-gradient-20);}.cls-21{fill:url(#linear-gradient-21);}.cls-22{fill:url(#linear-gradient-22);}.cls-23{fill:url(#linear-gradient-23);}.cls-24{fill:url(#linear-gradient-24);}.cls-25{fill:url(#linear-gradient-25);}.cls-26{fill:url(#linear-gradient-26);}.cls-27{fill:url(#linear-gradient-27);}.cls-28{fill:url(#linear-gradient-28);}.cls-29{fill:url(#linear-gradient-29);}.cls-30{fill:url(#linear-gradient-30);}.cls-31{fill:url(#linear-gradient-31);}.cls-32{fill:url(#linear-gradient-32);}.cls-33{fill:url(#linear-gradient-33);}.cls-34{fill:url(#linear-gradient-34);}.cls-35{fill:url(#linear-gradient-35);}.cls-36{fill:url(#linear-gradient-36);}.cls-37{fill:url(#linear-gradient-37);}.cls-38{fill:url(#linear-gradient-38);}.cls-39{fill:url(#linear-gradient-39);}.cls-40{fill:url(#linear-gradient-40);}.cls-41{fill:url(#linear-gradient-41);}.cls-42{fill:url(#linear-gradient-42);}.cls-43{fill:url(#linear-gradient-43);}.cls-44{fill:url(#linear-gradient-44);}.cls-45{fill:url(#linear-gradient-45);}.cls-46{fill:url(#linear-gradient-46);}.cls-47{fill:url(#linear-gradient-47);}.cls-48{fill:url(#linear-gradient-48);}.cls-49{fill:url(#linear-gradient-49);}.cls-50{fill:url(#linear-gradient-50);}.cls-51{fill:url(#linear-gradient-51);}.cls-52{fill:url(#linear-gradient-52);}.cls-53{fill:url(#linear-gradient-53);}.cls-54{fill:url(#linear-gradient-54);}.cls-55{fill:url(#linear-gradient-55);}.cls-56{fill:url(#linear-gradient-56);}.cls-57{fill:url(#linear-gradient-57);}.cls-58{fill:url(#linear-gradient-58);}.cls-59{fill:url(#linear-gradient-59);}.cls-60{fill:url(#linear-gradient-60);}.cls-61{fill:url(#linear-gradient-61);}.cls-62{fill:url(#linear-gradient-62);}.cls-63{fill:url(#linear-gradient-63);}.cls-64{fill:url(#linear-gradient-64);}.cls-65{fill:url(#linear-gradient-65);}.cls-66{fill:url(#linear-gradient-66);}.cls-67{fill:url(#linear-gradient-67);}.cls-68{fill:url(#linear-gradient-68);}.cls-69{fill:url(#linear-gradient-69);}.cls-70{fill:url(#linear-gradient-70);}.cls-71{fill:url(#linear-gradient-71);}.cls-72{fill:url(#linear-gradient-72);}.cls-73{fill:url(#linear-gradient-73);}.cls-74{fill:url(#linear-gradient-74);}.cls-75{fill:url(#linear-gradient-75);}.cls-76{fill:url(#linear-gradient-76);}.cls-77{fill:url(#linear-gradient-77);}</style><linearGradient id="linear-gradient" y1="59.59" x2="72.96" y2="59.59" gradientUnits="userSpaceOnUse"><stop offset="0" stop-color="#2372ba"/><stop offset="1" stop-color="#3fc7f4"/></linearGradient><linearGradient id="linear-gradient-2" x1="76.72" y1="59.59" x2="151.13" y2="59.59" xlink:href="#linear-gradient"/><linearGradient id="linear-gradient-3" x1="157.39" y1="59.64" x2="230.35" y2="59.64" xlink:href="#linear-gradient"/><linearGradient id="linear-gradient-4" x1="240.67" y1="59.59" x2="313.73" y2="59.59" xlink:href="#linear-gradient"/><linearGradient id="linear-gradient-5" x1="324.05" y1="59.69" x2="389.72" y2="59.69" xlink:href="#linear-gradient"/><linearGradient id="linear-gradient-6" x1="529.44" y1="59.69" x2="589.58" y2="59.69" xlink:href="#linear-gradient"/><linearGradient id="linear-gradient-7" x1="600.01" y1="59.69" x2="660.15" y2="59.69" xlink:href="#linear-gradient"/><linearGradient id="linear-gradient-8" x1="453.65" y1="-201.85" x2="536.29" y2="-121.58" gradientTransform="translate(-56.11 -20.54) rotate(26.94)" gradientUnits="userSpaceOnUse"><stop offset="0" stop-color="#a56e29"/><stop offset="0.09" stop-color="#a8722c"/><stop offset="0.19" stop-color="#b17f35"/><stop offset="0.3" stop-color="#c09544"/><stop offset="0.4" stop-color="#d4b259"/><stop offset="0.51" stop-color="#efd974"/><stop offset="0.54" stop-color="#f8e67e"/><stop offset="0.61" stop-color="#f4e179"/><stop offset="0.69" stop-color="#ead16a"/><stop offset="0.77" stop-color="#d8b852"/><stop offset="0.83" stop-color="#c9a33e"/><stop offset="0.87" stop-color="#c49b3b"/><stop offset="0.94" stop-color="#b58633"/><stop offset="1" stop-color="#a56e29"/></linearGradient><linearGradient id="linear-gradient-9" x1="59.78" y1="-643.95" x2="149.67" y2="-556.63" gradientTransform="translate(-106.63 -168.55) rotate(102.09)" xlink:href="#linear-gradient-8"/><linearGradient id="linear-gradient-10" x1="525.14" y1="-255.41" x2="646.35" y2="-183.22" gradientTransform="translate(-172.18 -16.07) rotate(29.87)" xlink:href="#linear-gradient-8"/><linearGradient id="linear-gradient-11" x1="529.33" y1="-262.45" x2="650.55" y2="-190.26" gradientTransform="translate(-172.18 -16.07) rotate(29.87)" xlink:href="#linear-gradient-8"/><linearGradient id="linear-gradient-12" x1="522.42" y1="-250.85" x2="643.63" y2="-178.65" gradientTransform="translate(-172.18 -16.07) rotate(29.87)" xlink:href="#linear-gradient-8"/><linearGradient id="linear-gradient-13" x1="552.33" y1="-301.07" x2="673.55" y2="-228.88" gradientTransform="translate(-172.18 -16.07) rotate(29.87)" xlink:href="#linear-gradient-8"/><linearGradient id="linear-gradient-14" x1="555.4" y1="-306.22" x2="676.61" y2="-234.03" gradientTransform="translate(-172.18 -16.07) rotate(29.87)" xlink:href="#linear-gradient-8"/><linearGradient id="linear-gradient-15" x1="546.14" y1="-290.67" x2="667.35" y2="-218.48" gradientTransform="translate(-172.18 -16.07) rotate(29.87)" xlink:href="#linear-gradient-8"/><linearGradient id="linear-gradient-16" x1="547.67" y1="-293.25" x2="668.89" y2="-221.06" gradientTransform="translate(-172.18 -16.07) rotate(29.87)" xlink:href="#linear-gradient-8"/><linearGradient id="linear-gradient-17" x1="546.93" y1="-292" x2="668.14" y2="-219.8" gradientTransform="translate(-172.18 -16.07) rotate(29.87)" xlink:href="#linear-gradient-8"/><linearGradient id="linear-gradient-18" x1="546.92" y1="-291.98" x2="599.47" y2="-260.68" gradientTransform="translate(-172.18 -16.07) rotate(29.87)" xlink:href="#linear-gradient-8"/><linearGradient id="linear-gradient-19" x1="548" y1="-293.79" x2="669.21" y2="-221.6" gradientTransform="translate(-172.18 -16.07) rotate(29.87)" xlink:href="#linear-gradient-8"/><linearGradient id="linear-gradient-20" x1="546.85" y1="-291.86" x2="668.06" y2="-219.67" gradientTransform="translate(-172.18 -16.07) rotate(29.87)" xlink:href="#linear-gradient-8"/><linearGradient id="linear-gradient-21" x1="546.56" y1="-291.39" x2="667.78" y2="-219.19" gradientTransform="translate(-172.18 -16.07) rotate(29.87)" xlink:href="#linear-gradient-8"/><linearGradient id="linear-gradient-22" x1="546.7" y1="-291.61" x2="667.91" y2="-219.42" gradientTransform="translate(-172.18 -16.07) rotate(29.87)" xlink:href="#linear-gradient-8"/><linearGradient id="linear-gradient-23" x1="551.2" y1="-299.16" x2="672.41" y2="-226.97" gradientTransform="translate(-172.18 -16.07) rotate(29.87)" xlink:href="#linear-gradient-8"/><linearGradient id="linear-gradient-24" x1="546.45" y1="-291.2" x2="667.67" y2="-219.01" gradientTransform="translate(-172.18 -16.07) rotate(29.87)" xlink:href="#linear-gradient-8"/><linearGradient id="linear-gradient-25" x1="548.16" y1="-294.07" x2="669.38" y2="-221.88" gradientTransform="translate(-172.18 -16.07) rotate(29.87)" xlink:href="#linear-gradient-8"/><linearGradient id="linear-gradient-26" x1="550.25" y1="-297.58" x2="671.47" y2="-225.39" gradientTransform="translate(-172.18 -16.07) rotate(29.87)" xlink:href="#linear-gradient-8"/><linearGradient id="linear-gradient-27" x1="548.26" y1="-294.24" x2="669.48" y2="-222.04" gradientTransform="translate(-172.18 -16.07) rotate(29.87)" xlink:href="#linear-gradient-8"/><linearGradient id="linear-gradient-28" x1="547.89" y1="-293.61" x2="669.1" y2="-221.41" gradientTransform="translate(-172.18 -16.07) rotate(29.87)" xlink:href="#linear-gradient-8"/><linearGradient id="linear-gradient-29" x1="553.58" y1="-303.17" x2="674.8" y2="-230.98" gradientTransform="translate(-172.18 -16.07) rotate(29.87)" xlink:href="#linear-gradient-8"/><linearGradient id="linear-gradient-30" x1="548.87" y1="-295.26" x2="670.09" y2="-223.07" gradientTransform="translate(-172.18 -16.07) rotate(29.87)" xlink:href="#linear-gradient-8"/><linearGradient id="linear-gradient-31" x1="548.36" y1="-294.4" x2="669.58" y2="-222.21" gradientTransform="translate(-172.18 -16.07) rotate(29.87)" xlink:href="#linear-gradient-8"/><linearGradient id="linear-gradient-32" x1="548.78" y1="-295.1" x2="669.99" y2="-222.91" gradientTransform="translate(-172.18 -16.07) rotate(29.87)" xlink:href="#linear-gradient-8"/><linearGradient id="linear-gradient-33" x1="548.67" y1="-294.92" x2="669.88" y2="-222.72" gradientTransform="translate(-172.18 -16.07) rotate(29.87)" xlink:href="#linear-gradient-8"/><linearGradient id="linear-gradient-34" x1="548.05" y1="-293.87" x2="669.26" y2="-221.68" gradientTransform="translate(-172.18 -16.07) rotate(29.87)" xlink:href="#linear-gradient-8"/><linearGradient id="linear-gradient-35" x1="546.72" y1="-291.64" x2="667.93" y2="-219.45" gradientTransform="translate(-172.18 -16.07) rotate(29.87)" xlink:href="#linear-gradient-8"/><linearGradient id="linear-gradient-36" x1="558.91" y1="-312.12" x2="680.13" y2="-239.93" gradientTransform="translate(-172.18 -16.07) rotate(29.87)" xlink:href="#linear-gradient-8"/><linearGradient id="linear-gradient-37" x1="546.72" y1="-291.64" x2="667.93" y2="-219.45" gradientTransform="translate(-172.18 -16.07) rotate(29.87)" xlink:href="#linear-gradient-8"/><linearGradient id="linear-gradient-38" x1="546.71" y1="-291.64" x2="667.93" y2="-219.44" gradientTransform="translate(-172.18 -16.07) rotate(29.87)" xlink:href="#linear-gradient-8"/><linearGradient id="linear-gradient-39" x1="546.73" y1="-291.67" x2="667.95" y2="-219.48" gradientTransform="translate(-172.18 -16.07) rotate(29.87)" xlink:href="#linear-gradient-8"/><linearGradient id="linear-gradient-40" x1="546.76" y1="-291.71" x2="667.97" y2="-219.52" gradientTransform="translate(-172.18 -16.07) rotate(29.87)" xlink:href="#linear-gradient-8"/><linearGradient id="linear-gradient-41" x1="546.79" y1="-291.76" x2="668" y2="-219.57" gradientTransform="translate(-172.18 -16.07) rotate(29.87)" xlink:href="#linear-gradient-8"/><linearGradient id="linear-gradient-42" x1="546.81" y1="-291.8" x2="668.02" y2="-219.6" gradientTransform="translate(-172.18 -16.07) rotate(29.87)" xlink:href="#linear-gradient-8"/><linearGradient id="linear-gradient-43" x1="546.83" y1="-291.83" x2="668.04" y2="-219.64" gradientTransform="translate(-172.18 -16.07) rotate(29.87)" xlink:href="#linear-gradient-8"/><linearGradient id="linear-gradient-44" x1="546.85" y1="-291.87" x2="668.06" y2="-219.67" gradientTransform="translate(-172.18 -16.07) rotate(29.87)" xlink:href="#linear-gradient-8"/><linearGradient id="linear-gradient-45" x1="547.94" y1="-293.69" x2="669.15" y2="-221.49" gradientTransform="translate(-172.18 -16.07) rotate(29.87)" xlink:href="#linear-gradient-8"/><linearGradient id="linear-gradient-46" x1="547.95" y1="-293.71" x2="669.16" y2="-221.51" gradientTransform="translate(-172.18 -16.07) rotate(29.87)" xlink:href="#linear-gradient-8"/><linearGradient id="linear-gradient-47" x1="548.1" y1="-293.96" x2="669.31" y2="-221.77" gradientTransform="translate(-172.18 -16.07) rotate(29.87)" xlink:href="#linear-gradient-8"/><linearGradient id="linear-gradient-48" x1="547.97" y1="-293.74" x2="669.18" y2="-221.55" gradientTransform="translate(-172.18 -16.07) rotate(29.87)" xlink:href="#linear-gradient-8"/><linearGradient id="linear-gradient-49" x1="547.99" y1="-293.78" x2="669.2" y2="-221.59" gradientTransform="translate(-172.18 -16.07) rotate(29.87)" xlink:href="#linear-gradient-8"/><linearGradient id="linear-gradient-50" x1="548.6" y1="-294.81" x2="669.82" y2="-222.62" gradientTransform="translate(-172.18 -16.07) rotate(29.87)" xlink:href="#linear-gradient-8"/><linearGradient id="linear-gradient-51" x1="548.61" y1="-294.83" x2="669.83" y2="-222.63" gradientTransform="translate(-172.18 -16.07) rotate(29.87)" xlink:href="#linear-gradient-8"/><linearGradient id="linear-gradient-52" x1="558.65" y1="-311.67" x2="679.86" y2="-239.48" gradientTransform="translate(-172.18 -16.07) rotate(29.87)" xlink:href="#linear-gradient-8"/><linearGradient id="linear-gradient-53" x1="548.72" y1="-295" x2="669.93" y2="-222.81" gradientTransform="translate(-172.18 -16.07) rotate(29.87)" xlink:href="#linear-gradient-8"/><linearGradient id="linear-gradient-54" x1="558.9" y1="-312.1" x2="680.12" y2="-239.91" gradientTransform="translate(-172.18 -16.07) rotate(29.87)" xlink:href="#linear-gradient-8"/><linearGradient id="linear-gradient-55" x1="546.69" y1="-291.6" x2="667.91" y2="-219.41" gradientTransform="translate(-172.18 -16.07) rotate(29.87)" xlink:href="#linear-gradient-8"/><linearGradient id="linear-gradient-56" x1="544.92" y1="-288.62" x2="666.13" y2="-216.42" gradientTransform="translate(-172.18 -16.07) rotate(29.87)" xlink:href="#linear-gradient-8"/><linearGradient id="linear-gradient-57" x1="544.03" y1="-287.13" x2="665.25" y2="-214.94" gradientTransform="translate(-172.18 -16.07) rotate(29.87)" xlink:href="#linear-gradient-8"/><linearGradient id="linear-gradient-58" x1="545.99" y1="-290.42" x2="667.2" y2="-218.22" gradientTransform="translate(-172.18 -16.07) rotate(29.87)" xlink:href="#linear-gradient-8"/><linearGradient id="linear-gradient-59" x1="549.62" y1="-296.53" x2="670.83" y2="-224.33" gradientTransform="translate(-172.18 -16.07) rotate(29.87)" xlink:href="#linear-gradient-8"/><linearGradient id="linear-gradient-60" x1="542.03" y1="-283.78" x2="663.25" y2="-211.59" gradientTransform="translate(-172.18 -16.07) rotate(29.87)" xlink:href="#linear-gradient-8"/><linearGradient id="linear-gradient-61" x1="517.36" y1="-242.35" x2="638.57" y2="-170.16" gradientTransform="translate(-172.18 -16.07) rotate(29.87)" xlink:href="#linear-gradient-8"/><linearGradient id="linear-gradient-62" x1="516.38" y1="-240.7" x2="637.59" y2="-168.5" gradientTransform="translate(-172.18 -16.07) rotate(29.87)" xlink:href="#linear-gradient-8"/><linearGradient id="linear-gradient-63" x1="516.83" y1="-241.46" x2="638.04" y2="-169.27" gradientTransform="translate(-172.18 -16.07) rotate(29.87)" xlink:href="#linear-gradient-8"/><linearGradient id="linear-gradient-64" x1="516.33" y1="-240.62" x2="637.54" y2="-168.42" gradientTransform="translate(-172.18 -16.07) rotate(29.87)" xlink:href="#linear-gradient-8"/><linearGradient id="linear-gradient-65" x1="526.23" y1="-257.24" x2="647.44" y2="-185.05" gradientTransform="translate(-172.18 -16.07) rotate(29.87)" xlink:href="#linear-gradient-8"/><linearGradient id="linear-gradient-66" x1="525.88" y1="-256.65" x2="647.09" y2="-184.46" gradientTransform="translate(-172.18 -16.07) rotate(29.87)" xlink:href="#linear-gradient-8"/><linearGradient id="linear-gradient-67" x1="523.89" y1="-253.31" x2="645.1" y2="-181.12" gradientTransform="translate(-172.18 -16.07) rotate(29.87)" xlink:href="#linear-gradient-8"/><linearGradient id="linear-gradient-68" x1="524.08" y1="-253.64" x2="645.3" y2="-181.44" gradientTransform="translate(-172.18 -16.07) rotate(29.87)" xlink:href="#linear-gradient-8"/><linearGradient id="linear-gradient-69" x1="516.8" y1="-241.41" x2="638.01" y2="-169.22" gradientTransform="translate(-172.18 -16.07) rotate(29.87)" xlink:href="#linear-gradient-8"/><linearGradient id="linear-gradient-70" x1="550.97" y1="-298.78" x2="672.18" y2="-226.58" gradientTransform="translate(-172.18 -16.07) rotate(29.87)" xlink:href="#linear-gradient-8"/><linearGradient id="linear-gradient-71" x1="537.15" y1="-275.58" x2="658.37" y2="-203.39" gradientTransform="translate(-172.18 -16.07) rotate(29.87)" xlink:href="#linear-gradient-8"/><linearGradient id="linear-gradient-72" x1="540.28" y1="-280.83" x2="661.49" y2="-208.64" gradientTransform="translate(-172.18 -16.07) rotate(29.87)" xlink:href="#linear-gradient-8"/><linearGradient id="linear-gradient-73" x1="538.95" y1="-278.6" x2="660.16" y2="-206.4" gradientTransform="translate(-172.18 -16.07) rotate(29.87)" xlink:href="#linear-gradient-8"/><linearGradient id="linear-gradient-74" x1="382.6" y1="14.44" x2="503.81" y2="86.63" gradientTransform="matrix(1, 0, 0, 1, 0, 0)" xlink:href="#linear-gradient-8"/><linearGradient id="linear-gradient-75" x1="537.26" y1="-275.77" x2="658.48" y2="-203.58" gradientTransform="translate(-172.18 -16.07) rotate(29.87)" xlink:href="#linear-gradient-8"/><linearGradient id="linear-gradient-76" x1="473.37" y1="9.4" x2="438.61" y2="15.19" gradientTransform="matrix(1, 0, 0, 1, 0, 0)" xlink:href="#linear-gradient-8"/><linearGradient id="linear-gradient-77" x1="433.57" y1="101.79" x2="488.83" y2="109.37" gradientTransform="matrix(1, 0, 0, 1, 0, 0)" xlink:href="#linear-gradient-8"/></defs><title>Untitled-1</title><path class="cls-1" d="M73,72.83A23.26,23.26,0,0,1,49.72,96.07H0v-73H46a19.75,19.75,0,0,1,19.7,19.7,19.31,19.31,0,0,1-3.13,10.63A23.25,23.25,0,0,1,73,72.83ZM13,49.48h33a6.67,6.67,0,1,0,0-13.34H13ZM49.72,82.94a10.21,10.21,0,0,0,0-20.43H13V83H49.72Z"/><path class="cls-2" d="M151.13,96.07H136.54l-6.67-13L113.92,51.77,98,83l-6.67,13H76.72l6.67-13,30.54-59.93L144.46,83Z"/><path class="cls-3" d="M230.35,23.21v73l-13-10L170.42,50V96.17h-13V23.42l13,10,46.9,36.17V23.11Z"/><path class="cls-4" d="M281.84,52.4l31.58,43.67H297.37L272.14,61.26,253.7,78v18h-13v-73h13V60.42l10.74-9.8,9.69-8.86,20.32-18.66h19.28Z"/><path class="cls-5" d="M383,83.14l6.67,13H375.13l-6.67-13-7-13.65-.31-.63a12.92,12.92,0,0,0-11-6.25h-13V96.17h-13v-73h46.07A19.53,19.53,0,0,1,384,28.95a20,20,0,0,1,5.73,14,19.76,19.76,0,0,1-11.47,17.93,17.41,17.41,0,0,1-5.63,1.56ZM370.12,49.58a6.09,6.09,0,0,0,2.71-.63,6.62,6.62,0,0,0,4-6,6.87,6.87,0,0,0-2-4.79,6.57,6.57,0,0,0-4.69-1.88h-33V49.69Z"/><path class="cls-6" d="M589.58,83.14v13h-37a22.66,22.66,0,0,1-10.21-2.4,23.12,23.12,0,0,1-10.53-10.63,22.66,22.66,0,0,1-2.4-10.21V23.21h13v51A10.39,10.39,0,0,0,551.33,83Z"/><path class="cls-7" d="M660.15,83.14v13h-37a22.66,22.66,0,0,1-10.21-2.4A23.12,23.12,0,0,1,602.4,83.14,22.66,22.66,0,0,1,600,72.93V23.21h13v51A10.39,10.39,0,0,0,621.9,83Z"/><path class="cls-8" d="M512.67,85.26c-15.23,27.89-51.88,39-81.85,24.83S388.9,61.81,404.14,33.92,456-5.08,486,9.09,527.91,57.37,512.67,85.26Z"/><path class="cls-9" d="M445.11,117.36c-34.29-6.83-56.13-38.24-48.78-70.14S437.42-5,471.7,1.82,527.83,40.06,520.49,72,479.39,124.19,445.11,117.36Z"/><path class="cls-10" d="M442.82,91.82a2.56,2.56,0,0,0-.14-.5,2.69,2.69,0,0,1,2.12-3.61,7.82,7.82,0,0,1,3.28.31,40.42,40.42,0,0,1,3.83,1.37,4.4,4.4,0,0,1,1.47,1,1.79,1.79,0,0,1,.21,2.31,4.13,4.13,0,0,1-3.4,2,7.42,7.42,0,0,1-2.91-.36,10.65,10.65,0,0,1-3.6-1.8c-.3-.25-.59-.52-.88-.78Zm4.07,1.72a1.55,1.55,0,0,0,1.11-.59,11.23,11.23,0,0,0,1.78-2.83,2.87,2.87,0,0,0,.14-.72.72.72,0,0,0-1,0,3.75,3.75,0,0,0-.79.87c-.47.78-.89,1.59-1.31,2.4A.64.64,0,0,0,446.89,93.54Z"/><path class="cls-11" d="M463.47,91a1,1,0,0,1-.06,1,9.62,9.62,0,0,1-1.88,2.44,3.13,3.13,0,0,1-.86.6,9.07,9.07,0,0,1-5.75.67c-1.32-.31-1.73-1.1-1.21-2.29a3.92,3.92,0,0,1,3.41-2.53c1.51-.14,3-.26,4.52-.35A2.32,2.32,0,0,1,463.47,91Zm-3.16.11c-.45,0-.67.29-.9.56a9,9,0,0,0-1.95,3.63c1,.42,1.89-2.2,2.68-3.37C460.29,91.67,460.51,91.43,460.3,91.08Z"/><path class="cls-12" d="M442.81,91.79l-.33.53A21.52,21.52,0,0,1,435.31,88a1.27,1.27,0,0,1,.06-.24,1,1,0,0,1,.14-.16.85.85,0,0,1,.21,0c.23.11.45.25.69.36a1.06,1.06,0,0,0,1.2-.2,3.72,3.72,0,0,0,1.18-1.89,1.57,1.57,0,0,0-.6-1.69l-.43-.33.44-.35a8.13,8.13,0,0,0,1,.54,6,6,0,0,0,1.37.34,2.4,2.4,0,0,1,1,.25c.85.46,1.7.91,2.58,1.38-.43.7-.81,1.34-1.22,2-.29.46-.63.9-.92,1.37a1.56,1.56,0,0,0,.83,2.49Z"/><path class="cls-13" d="M467.48,21.29l1.22-1a1.43,1.43,0,0,0-.45,0,2.33,2.33,0,0,0-1.4,1c-.28.44-.53.89-.8,1.34h0a3.6,3.6,0,0,1,1.79-2.45,8.58,8.58,0,0,0-2.64-.24,7.22,7.22,0,0,0-1.47,4.26h0a3.22,3.22,0,0,1-.08-.64,7.71,7.71,0,0,1,.81-3c.07-.14.12-.29.2-.46a2,2,0,0,0-1.19.14,5.16,5.16,0,0,0-1,2.34c-.06.33-.13.66-.19,1h0a2.93,2.93,0,0,1,.14-1.63c.12-.47.3-.92.47-1.43a.87.87,0,0,0-.79.54,6,6,0,0,0-.77,3.37,10.28,10.28,0,0,0,2.75,6.5c.39.45.73.92,1.1,1.39h0a16,16,0,0,1-2.75-3.34,14.51,14.51,0,0,1-2.3-6,.82.82,0,0,0-.09-.17c-.29.34-.22.73-.28,1.08s0,.53-.07.79h0a1.77,1.77,0,0,1-.1-1.24,3.07,3.07,0,0,1,1.58-2.5,8.74,8.74,0,0,1,5.93-1.19,13.27,13.27,0,0,1,1.76.37c.58.16,1.13.38,1.78.61a6.13,6.13,0,0,1,3.52.72,25.2,25.2,0,0,1,4.85,2.66,47.23,47.23,0,0,1,7.76,6.71A7.32,7.32,0,0,1,489,35.31a4.37,4.37,0,0,1,0,1,2.83,2.83,0,0,1-2.47,2.4,8.77,8.77,0,0,1-3.37-.13,26.93,26.93,0,0,1-6-2.05c-1-.46-2-.92-2.93-1.45a18,18,0,0,1-5.76-4.82,8.56,8.56,0,0,1-1.85-5.42,3.92,3.92,0,0,1,3-3.88c.15,0,.3-.11.5-.19a1.17,1.17,0,0,0-1.32-.11c-.41.18-.79.41-1.19.62Zm17.44,17.28c.4,0,.81,0,1.21-.06a2.53,2.53,0,0,0,2.55-2.39A6.28,6.28,0,0,0,487,31.37a41.39,41.39,0,0,0-4.76-4.59,31.8,31.8,0,0,0-7.69-5,11.64,11.64,0,0,0-2.61-.86,35.09,35.09,0,0,0-3.17,5.83c.12.06.24.14.36.19,1,.46,2.06.88,3.06,1.37a43.73,43.73,0,0,1,6.05,3.54,25.79,25.79,0,0,1,4.85,4.3C483.72,36.93,484.27,37.72,484.92,38.57ZM471.54,20.94a5.06,5.06,0,0,0-2.25.35,3.42,3.42,0,0,0-2.34,2.54,6.81,6.81,0,0,0,.31,3.78,2.28,2.28,0,0,0,.31.42ZM484.39,38.4c-.3-.43-.57-.84-.88-1.24a28,28,0,0,0-8.31-6.88c-1.67-1-3.45-1.78-5.19-2.65-.48-.24-1-.4-1.54-.6l-.2.41c.31.17.57.32.85.45.84.38,1.71.72,2.54,1.13a45.6,45.6,0,0,1,5.7,3.3,27.3,27.3,0,0,1,4.13,3.34c.74.76,1.4,1.59,2.09,2.4C483.78,38.29,483.91,38.59,484.39,38.4Zm-3.6-.78A26.07,26.07,0,0,0,474,32.15c-.31.53-.75.91-.73,1.55a7,7,0,0,1,4.6,1.37l-.73,1.18A18.84,18.84,0,0,0,480.79,37.62Zm-19.54-11.9a7.59,7.59,0,0,1,.51-4.71l-.15-.06-1.17.87A7.32,7.32,0,0,0,461.26,25.72Zm13.93,9.63a4.37,4.37,0,0,0,1.44.64l-1-1.34Zm-5.54-5.15v-.09l-1.34-.72-.09.07.42.66Z"/><path class="cls-14" d="M490.61,32a9.11,9.11,0,0,1,2.61,6,4.22,4.22,0,0,1-3.06,3.93,10.61,10.61,0,0,1-4.35.37,27.42,27.42,0,0,1-6.21-1.45,1.55,1.55,0,0,1-.21-.14l1.86.43a21.93,21.93,0,0,0,6.58.65,8.78,8.78,0,0,0,2.24-.46,3.73,3.73,0,0,0,2.58-3.76,9.09,9.09,0,0,0-1.05-3.68c-.31-.63-.63-1.25-.95-1.87Z"/><path class="cls-15" d="M462.47,31.84a11.81,11.81,0,0,1-2.5-2.43h0c.27.24.56.47.81.73.57.56,1.12,1.13,1.68,1.7Z"/><path class="cls-16" d="M465.21,32.23l1.46,1.41h0l-1.46-1.41Z"/><path class="cls-17" d="M459.85,25.3l-.07-.67h0l.07.67Z"/><line class="cls-18" x1="464.63" y1="33.58" x2="464.61" y2="33.58"/><path class="cls-19" d="M467.16,34l.39.26-.06.06-.3-.33Z"/><path class="cls-20" d="M464.63,33.58l-.56-.45h0l.56.45Z"/><path class="cls-21" d="M462.94,32.23l.48.46h0l-.48-.46Z"/><path class="cls-22" d="M463.42,32.68l.63.45h0l-.63-.45Z"/><path class="cls-23" d="M467.48,21.27l-.2.28,0,0,.24-.23Z"/><path class="cls-24" d="M463,32.22l-.49-.39h0l.49.38Z"/><path class="cls-25" d="M462.29,24.3l0,.46h0l0-.46Z"/><path class="cls-26" d="M466.06,22.55l-.1.35-.08,0,.2-.33Z"/><path class="cls-27" d="M462.32,24.3l-.05-.48h0l0,.48Z"/><path class="cls-28" d="M466.67,33.64l.5.38h0l-.5-.38Z"/><path class="cls-29" d="M484.65,42.8l.24.11v0"/><path class="cls-30" d="M463.76,24.41l0-.3h0l0,.3Z"/><path class="cls-31" d="M462.29,23.5l0,.32h0l0-.32Z"/><path class="cls-32" d="M463.7,24.72l.06-.31h0l-.06.31Z"/><path class="cls-33" d="M463.75,24.93l0,.27h0l0-.27Z"/><path class="cls-34" d="M462.37,25.25l0-.28h0l0,.27Z"/><path class="cls-35" d="M460.41,26.82l-.18-.22h0l.18.22Z"/><path class="cls-36" d="M490.64,32l-.18-.24h0l.18.25Z"/><path class="cls-37" d="M460.39,26.83l0,.19h0l0-.2Z"/><path class="cls-38" d="M460.23,26.61l-.07-.18h0l.07.18Z"/><path class="cls-39" d="M460.09,26.24l.05.19h0l-.05-.19Z"/><path class="cls-40" d="M460.05,26.06l0,.19h0l0-.19Z"/><path class="cls-41" d="M460.07,26l0-.19h0l0,.19Z"/><path class="cls-42" d="M460,25.86l-.06-.19h0l.06.18Z"/><path class="cls-43" d="M459.89,25.5l.05.18h0l-.05-.18Z"/><path class="cls-44" d="M459.82,25.3l.07.2h0l-.07-.2Z"/><polygon class="cls-45" points="462.53 25.83 462.55 25.86 462.55 25.83 462.53 25.83"/><path class="cls-46" d="M462.48,25.65l.05.18h0l-.05-.19Z"/><path class="cls-47" d="M462.32,24.77l.07.21h0l-.07-.21Z"/><path class="cls-48" d="M462.5,25.64l-.06-.18h0l.06.18Z"/><path class="cls-49" d="M462.44,25.46l-.07-.21h0l.07.22Z"/><polygon class="cls-50" points="463.8 25.41 463.81 25.45 463.81 25.41 463.8 25.41"/><path class="cls-51" d="M463.82,25.41l-.07-.22h0l.08.22Z"/><path class="cls-52" d="M495.64,41.93h0Z"/><path class="cls-53" d="M463.67,24.72l.08.21h0l-.08-.21Z"/><polygon class="cls-54" points="490.45 31.73 490.42 31.69 490.44 31.72 490.45 31.73"/><path class="cls-55" d="M460.42,27v0Z"/><path class="cls-56" d="M466.42,48.17c-.65-.35-.74-.49-.6-1.08a3.53,3.53,0,0,1,1.05-2,2.19,2.19,0,0,1,1.14-.58l.75.4A3.22,3.22,0,0,1,466.42,48.17Z"/><path class="cls-57" d="M467.35,43.83A4.45,4.45,0,0,0,465,47.4a5.16,5.16,0,0,1-1.61-.95A13.48,13.48,0,0,1,460.67,44a3.43,3.43,0,0,1-.59-1c-.34-1,.29-1.77,1.4-1.75a4.51,4.51,0,0,1,1.33.25,10.9,10.9,0,0,1,1.49.67C465.28,42.71,466.26,43.24,467.35,43.83ZM464.7,47.1a14.05,14.05,0,0,1,.81-1.78,14.48,14.48,0,0,1,1.24-1.48.94.94,0,0,0-.19-.18c-1-.56-2.07-1.15-3.14-1.67a4.43,4.43,0,0,0-1.93-.51c-1,0-1.48.6-1.22,1.46a2.1,2.1,0,0,0,.46.83,24.38,24.38,0,0,0,1.91,1.82C463.28,46.13,464,46.59,464.7,47.1Z"/><path class="cls-58" d="M467.21,48.86c1.27-1,2.29-2,2.2-3.75.23.11.4.17.55.26l4,2.27c.54.31,1,.7.87,1.35a1.66,1.66,0,0,1-1.29,1.4,4.19,4.19,0,0,1-1.42.13,13.18,13.18,0,0,1-4.69-1.47A1.5,1.5,0,0,1,467.21,48.86Zm.31,0c.68.28,1.22.52,1.77.73a10.33,10.33,0,0,0,3.14.72,2.44,2.44,0,0,0,1.68-.47,1.11,1.11,0,0,0,0-1.89,26.84,26.84,0,0,0-4.24-2.41s-.09,0-.21,0A5,5,0,0,1,467.52,48.9Z"/><path class="cls-59" d="M484,50.29a3.82,3.82,0,0,0-1.64,1.88,12.45,12.45,0,0,0-.53,1.45,2.71,2.71,0,0,1-.5,0c-1-.27-2-.52-3-.85a4.15,4.15,0,0,1-1.21-.7c-1-.78-.76-1.9.47-2.28a5.72,5.72,0,0,1,1.34-.24,20.36,20.36,0,0,1,5.18.48m-.4.12c-.49-.08-.83-.16-1.18-.18-1.2-.08-2.4-.19-3.6-.19a4.46,4.46,0,0,0-1.6.36.89.89,0,0,0-.45,1.36,2.06,2.06,0,0,0,.36.42,6,6,0,0,0,2.7,1.21c.56.16,1.15.25,1.8.38A6.5,6.5,0,0,1,483.66,50.09Z"/><path class="cls-60" d="M457.87,42.42a19,19,0,0,1-4.38-4.24c1.15-.44,1.4-.81,1.69-2.58l1.4.18,2.6,2.69c-.12.19-.24.37-.35.57-.32.6-.65,1.19-.95,1.8A1.92,1.92,0,0,0,457.87,42.42Zm-4-4.1a12,12,0,0,0,3.55,3.36,7.42,7.42,0,0,1,1.45-3.2L456.49,36l-1.14-.08A2.91,2.91,0,0,1,453.91,38.32Z"/><path class="cls-61" d="M429.62,90.87l.92-1.49c.49.37.59.74.35,1.15S430.26,91,429.62,90.87Z"/><path class="cls-62" d="M424.64,84.45l0-.24.09,0-.12.2Z"/><path class="cls-63" d="M425.25,83.4l-.07.11h0l.07-.11Z"/><polygon class="cls-64" points="424.62 84.44 424.67 84.47 424.64 84.45 424.62 84.44"/><path class="cls-65" d="M455.42,99.41l-.22.23.13-.28Z"/><path class="cls-66" d="M455,100.15l-.07.15,0,0,.09-.14Z"/><path class="cls-67" d="M450.51,100.44l-.41-.22,0-.07.68,0-.32.25Z"/><path class="cls-68" d="M450.74,99.69l-.31.07.24-.3Z"/><path class="cls-69" d="M423.91,80.15l-.66,1.06a2.45,2.45,0,0,1,.51-1.12Z"/><path class="cls-70" d="M484.08,50.57a5.91,5.91,0,0,0-1.59,2.15.6.6,0,0,0,.51.84,1.06,1.06,0,0,0,.82-.16,4.08,4.08,0,0,0,1.66-2.64.31.31,0,0,0-.16-.35A1.13,1.13,0,0,0,484.08,50.57Z"/><path class="cls-71" d="M453.88,71a40.26,40.26,0,0,1-10-7.65,20,20,0,0,1-5-8.3,12,12,0,0,1,1.07-9.3l.26.12c-4.19,7.54,1.29,14.6,3.85,17.29,5.84,6.14,15.74,12.28,26,11.09a19.69,19.69,0,0,0,9.72-3.79l.18.21a20,20,0,0,1-9.87,3.85A27.89,27.89,0,0,1,453.88,71Z"/><path class="cls-72" d="M466.51,54.16l-.15-.05-.82,2.12.15.05c.33.11.86.21,1.24-.77S466.85,54.27,466.51,54.16ZM447.27,33.77,445,37.52c4.48,16.52,22.84,20,22.84,20l1.52-3.14C450.77,49.47,447.27,33.77,447.27,33.77Zm-.8,6.65-.06,0-.43-1,.06,0a.35.35,0,0,0,.46.13l1.9-.71,0-.06a.79.79,0,0,0-.92-.45l0-.05.67-.25.89,2.05-.67.25,0-.05c.59-.25.32-.92.32-.92l0-.06-1.9.71C446.47,40.11,446.4,40.29,446.46,40.42Zm1.73,3.15-.05,0-.36-.61.05,0c.08.06.16,0,.42-.12l.6-.31-.42-.71-.6.31c-.26.13-.35.17-.33.26l-.05,0-.37-.62.05,0c.14.13.2.07.46-.06l1.35-.69c.24-.13.38-.18.32-.34l.05,0,.37.62-.05,0c-.08-.07-.2,0-.44.13l-.68.35.42.71.68-.35c.24-.13.38-.18.36-.28l.05,0,.36.61-.05,0c-.11-.12-.23,0-.48.08l-1.35.69C448.23,43.38,448.14,43.4,448.19,43.57Zm3.13,1.3,0,0c.46-.4-.1-1.14-.1-1.14l-.08-.1-1,.63.08.1s.32.42.65.24l0,0-.66.44,0,0c.29-.23,0-.65,0-.65l-.08-.1-1,.64.08.1s.55.73,1.24.45l0,0-.64.42-1.18-1.55.05,0c.09.12.27.06.48-.07l1.27-.83c.18-.12.33-.27.24-.39l.05,0,1.15,1.51Zm1.08,3.81a.77.77,0,0,1,0-1.2l.9-.84a.25.25,0,0,0,0-.4l0,0,.81.76,0,0a.31.31,0,0,0-.46,0l-.92.86a.54.54,0,0,0-.05.85.66.66,0,0,0,.91-.06l.76-.71s.39-.35,0-.68l0,0,.77.72,0,0a.55.55,0,0,0-.76,0l-.76.71A.86.86,0,0,1,452.4,48.68ZM457,50.36l-1,1.19-.15-.11V49.07l-.66.78s-.54.63-.15.91l0,0-.86-.63,0,0c.43.32,1-.32,1-.32l.7-.82v-.21c0-.34-.11-.38-.18-.44l0,0,.7.51,0,2.15.55-.64s.54-.63.14-.91l0,0L458,50l0,0C457.52,49.73,457,50.36,457,50.36Zm2.11.73-.95,1.34a.3.3,0,0,0,.05.45l0,0-1-.58,0,0a.35.35,0,0,0,.46-.14l.95-1.34a.26.26,0,0,0-.08-.41l0,0,1,.58,0,0A.31.31,0,0,0,459.1,51.09Zm2.4,1-.06,0-1,1.67a.3.3,0,0,0,.09.44l0,.05-1-.51,0-.05a.35.35,0,0,0,.45-.17l1-1.67-.06,0s-.68-.33-1,.18l-.05,0,.35-.59,2.08,1.07-.35.59-.05,0C462.17,52.43,461.5,52.07,461.5,52.07Zm3,2-.06,0c.18-.56-.71-.94-.71-.94l-.12,0-.48,1,.12,0s.5.21.69-.1l.06,0-.33.69-.06,0c.12-.33-.38-.54-.38-.54l-.12,0-.49,1,.12,0s.87.37,1.31-.19l.06,0-.32.67-1.86-.78,0-.05c.14.06.27-.08.37-.29l.64-1.32c.09-.19.13-.39,0-.45l0-.05,1.81.76Zm3.06,1.67c-.36.92-1.18.85-1.85.63l-.9-.3,0-.05c.15,0,.32-.08.4-.29l.53-1.36c.08-.2,0-.42-.11-.47l0-.05.9.3C467.21,54.33,467.88,54.78,467.52,55.71Z"/><path class="cls-73" d="M444.39,38.27l-2.25,3.79c6.18,18.87,28.15,20,28.15,20l.7-3.14C446.91,54.68,444.39,38.27,444.39,38.27Zm-1.64,4.55-.16-.45a3.29,3.29,0,0,1,2.26.19l-.3-.85a.41.41,0,0,0-.31-.26l0-.05.67-.12.51,1.44-.53-.1A4.73,4.73,0,0,0,442.76,42.82Zm2.55,4.7a1.52,1.52,0,0,1-.65-.66,1.11,1.11,0,0,1,.54-1.61,1.28,1.28,0,0,1,1.75.43,1.31,1.31,0,0,1,.26.86l-.52.21,0-.05c.33-.38.44-.66.24-1s-.51-.38-1.38.07-1,.73-.8,1.05a.91.91,0,0,0,1,.34l0,.05Zm1.13,1.92a1.07,1.07,0,0,1,.3-1.64,1.29,1.29,0,0,1,1.81.21,1.1,1.1,0,0,1-.33,1.66A1.26,1.26,0,0,1,446.44,49.44Zm3.07,3.27-.13-.13.34-2.34-.77.68s-.62.55-.28.89l0,0-.76-.74,0,0c.38.37,1-.19,1-.19l.82-.73,0-.21c0-.34-.05-.39-.11-.45l0,0,.61.6L450,52.19l.64-.57s.62-.55.28-.88l0,0,.76.74,0,0c-.37-.37-1,.19-1,.19ZM452,54.65l0,0-.88-.67,0,0a.35.35,0,0,0,.48-.09l1.3-1.47-.05,0s-.6-.44-1,0l0,0,.46-.52,1.84,1.4-.46.52,0,0c.39-.48-.2-1-.2-1l-.05,0L452,54.2A.3.3,0,0,0,452,54.65Zm2.19,1.53-.94-.6,0,0a.35.35,0,0,0,.47-.13l1-1.33a.26.26,0,0,0-.07-.41l0,0,.94.6,0,0a.31.31,0,0,0-.44.09l-1,1.33a.3.3,0,0,0,0,.45Zm3.67.25L457,57.75l-.17-.09-.42-2.33-.52.87s-.42.7,0,.92l0,.05-1-.5,0-.05c.48.25.89-.46.89-.46l.55-.92,0-.21c-.06-.34-.17-.35-.25-.4l0-.05.78.4.4,2.12.43-.72s.42-.7,0-.92l0,0,1,.49,0,0C458.25,55.73,457.84,56.43,457.84,56.43Zm3.09,1.08-.06,0c.17-.57-.73-.93-.73-.93l-.12,0-.46,1,.12,0s.5.2.69-.1l.06,0-.32.7-.06,0c.12-.33-.39-.54-.39-.54l-.12,0-.47,1,.12,0s.88.35,1.31-.21l.06,0-.31.67-1.87-.75,0-.05c.14.06.27-.08.36-.29l.62-1.33c.09-.19.13-.39,0-.45l0-.05,1.83.73Zm3.83.63c-.52-.16-.78.6-.78.6l-.51,1.44-.18-.06-.87-2.22-.34.94s-.28.76.2.91l0,.05-1-.32,0-.05c.52.16.79-.6.79-.6l.36-1-.08-.2c-.13-.32-.24-.32-.33-.35l0-.05.84.26.82,2,.28-.78s.28-.76-.2-.9l0-.05,1,.32Zm2.81,1.29h-.06c.13-.59-.62-.78-.62-.78l-.07,0-.49,1.85a.31.31,0,0,0,.21.41v.06l-1.11-.25v-.06a.33.33,0,0,0,.39-.27l.49-1.85-.07,0s-.75-.15-.93.42h-.06l.17-.66,2.31.53Zm2.59.47h-.06a.91.91,0,0,0-.73-.8c-.38-.06-.61.35-.2.71l.48.43c.41.37.54.76.2,1.07a.87.87,0,0,1-.79.15,1.76,1.76,0,0,1-.94-.37l.12-.64h.06a1,1,0,0,0,.76.94c.38.06.59-.4.21-.76l-.49-.41c-.45-.38-.57-.74-.21-1.05a.91.91,0,0,1,.79-.13,2.13,2.13,0,0,1,.88.31ZM448.5,48c-.25-.32-.59-.32-1.39.22s-.87.82-.62,1.15.55.34,1.36-.2S448.76,48.36,448.5,48Z"/><path class="cls-74" d="M472.94,23.4l-.11.2c1,.34,1.95.72,2.89,1.13a21.15,21.15,0,0,0-2.09-1Zm-14.54-17c-31.55,0-57.12,23.8-57.12,53.15s25.58,53.15,57.12,53.15,57.13-23.8,57.13-53.15S490,6.43,458.41,6.43Zm42,38.23a7.68,7.68,0,0,1-.61,1.56c-.52,1-1.08,2.05-1.65,3a35.93,35.93,0,0,1,1.53,10.34c0,18.44-14,33.84-32.6,37.56l-.93,1.58q-1.62,2.75-3.25,5.48a4.29,4.29,0,0,1-1.33,1.38,17.69,17.69,0,0,1-4.76,2.11,25.32,25.32,0,0,1-7.17,1h0a30.25,30.25,0,0,1-5.12-.45,38.26,38.26,0,0,1-7.47-2.12,45.23,45.23,0,0,1-7.63-3.82,28.92,28.92,0,0,1-10.66-11,17.87,17.87,0,0,1-2.12-8.66,4.14,4.14,0,0,1,.59-2.12l3.31-5.62a36,36,0,0,1-3.44-15.36c0-19,14.75-34.68,34.15-37.83l.26-.43c.47-.79.92-1.55,1.34-2.32a7.33,7.33,0,0,1,3.79-3.23,13.42,13.42,0,0,1,5.34-1l1,0a27,27,0,0,1,5.74,1l0,0v.06c.84.23,1.7.49,2.58.81A51.07,51.07,0,0,1,477,19l.76-.34,2.5,1.58.65-.13.78.67.47,0,.69.7a3.08,3.08,0,0,1,1,.56l.47,0,.76.73.29-.14,1.3,1.06.61-.34,1.26,1.31.54,0,.91,1.11.74.9a6.71,6.71,0,0,1,.42.6l.14.21.59-.47,1,1.4.72-.06.15.37,2.9-1.57-.57,2.31,0,.6,1.4-.82V30l.28-.16.17,2.66.21.4,2.61-2.1-.17,1.87.68-.32-.3,1.92.89-.14-.68,2.33a6,6,0,0,1,.84,2.64l.06.56-1.6,3.14a4.73,4.73,0,0,1,0,1.55l.24-.05Z"/><path class="cls-75" d="M431,89.74l-.07-.07-.8.72.07.07c.21.21.39.37.79,0S431.19,90,431,89.74Zm-10.23-9v0S420.73,80.82,420.74,80.77Zm3.51.35c.44-.17.34-.4.28-.53l0-.11-.94.38,0,.11C423.65,81.12,423.81,81.3,424.25,81.13Zm-1,.52c.47-.19.35-.47.27-.65l0-.11-1,.39,0,.11C422.67,81.61,422.77,81.84,423.27,81.64Zm20,16.69c-.27.77-.17,1,.19,1.11s.58,0,.85-.8.18-1-.18-1.14S443.58,97.56,443.31,98.33Zm52.33-56.39,0,0,0,0ZM425.1,83l-1,.12.34.6ZM499.88,39.3a3.87,3.87,0,0,0-.69-2l-.49.05.19-.64-.47.07.12-.77-.43.21.05-.55-.68.55-1.18-2.27-.4.27,0-.8-.47.27v-.86l-.54.32-.4-1.05-.43,0,0-.66-.58.33-.13-.09.13-.51-.73.4-.48-1.16-.39,0-.33-.47-.51.41-.8-1.19A6.19,6.19,0,0,1,489,27.79l-1-1.25-.44,0-.65-.68-.43.24L485.1,25l-.41.2L483.54,24l-.32,0c-.58-.2-.73-.9-1.43-.73l-.5-.51-.36,0-.68-.58-.46.09L477.57,21l-.61.28-.36-.16a47.63,47.63,0,0,0-6-2.58,27,27,0,0,0-7.7-1.65,11.81,11.81,0,0,0-5.3.8,5.25,5.25,0,0,0-2.73,2.28c-.67,1.24-1.43,2.44-2.14,3.66l-2.91,5-5.39,9.3-3.09,5.33c-.09.16-.16.33-.25.49l-2,3.51c-.14.26-1.77.64-2.15.91a6.38,6.38,0,0,0-1.28,1.41,10.27,10.27,0,0,0-1.92,4.1c-.23,1.21-.07,2.57-.27,3.72a10.18,10.18,0,0,1-1.6,2.76q-1.85,3.06-3.69,6.12c-1.2,2-2.37,4-3.55,6q-2.73,4.63-5.46,9.26a2.23,2.23,0,0,0-.32,1.15,15.89,15.89,0,0,0,1.9,7.73,27.08,27.08,0,0,0,9.91,10.18,42.86,42.86,0,0,0,7.25,3.63,36.2,36.2,0,0,0,7,2,24.47,24.47,0,0,0,11.22-.5,15.48,15.48,0,0,0,4.15-1.83,2.16,2.16,0,0,0,.67-.7c1.55-2.59,3.07-5.19,4.6-7.78.44-.75.9-1.48,1.34-2.23Q469,89.64,471,86.08c.27-.47.57-.94.83-1.42l3.63-6.59a7.83,7.83,0,0,0,4.17-7l1.07-1.39c.72-.93,1.44-1.85,2.14-2.78s1.52-2.07,2.29-3.1,1.62-2.11,2.41-3.18,1.64-2.27,2.47-3.4c.34-.46.69-.92,1-1.38.78-1,1.62-2,2.33-3.07a70,70,0,0,0,4.42-7.41,3.5,3.5,0,0,0,.41-2.81Zm-7.75-8.39.27.66a2,2,0,0,1-1.07-1.09ZM455.2,20.66a2.69,2.69,0,0,1,1.65-1.91c-.14.27-.28.54-.41.82a5.56,5.56,0,0,0-.15,3.83,13.11,13.11,0,0,0,2.28,4.4c.37.49.81.95,1.23,1.41-.4-.53-.79-1.07-1.18-1.61a12.46,12.46,0,0,1-2.26-4.84,5.27,5.27,0,0,1,.1-2.6,3.47,3.47,0,0,1,2.9-2.57,16.13,16.13,0,0,1,5-.17,31.61,31.61,0,0,1,7.9,2.07c1.59.63,3.17,1.31,4.8,2l.52-.25,2.26,1.44.38,0,1.09.71.06-.07.44.45.34-.09c.55.15.73.88,1.42.74l1.15,1.12.42-.22,1.4,1.1.42-.15.63.64.4,0a3.51,3.51,0,0,1,.39.42A48.26,48.26,0,0,0,492.14,32a11.16,11.16,0,0,1,2.2,4.06,6.94,6.94,0,0,1-.08,4.37,3.78,3.78,0,0,1-2.66,2.37,8.72,8.72,0,0,1-3.06.39c-1-.05-2-.17-2.95-.26l-.61,0a13.66,13.66,0,0,0,6.18.44,4.63,4.63,0,0,0,4-4.35,8.46,8.46,0,0,0-1.42-5.46c-.29-.46-.62-.91-.95-1.39l.19-.39.59.39.1-.09.25.4.41.09.39.89.3,0,.49.68.1-.05.24.61.4-.2a4.42,4.42,0,0,1,1,2.46c0,.74,0,1.48-.12,2.21a5,5,0,0,1-1.47,2.76,4.15,4.15,0,0,0,1.85-3c.1-.61.08-1.25.12-2l.5-.37-.1.77.38,0-.26,1,.86-.67a2.9,2.9,0,0,1,.62,1.67c-.6,1.17-1.16,2.34-1.79,3.47a2.34,2.34,0,0,1-.83.71,12.93,12.93,0,0,1-2.91,1.34l-.1,0-.2.05c-.17,0-.42.14-.6.15s-.13,0-.23,0h-4a.75.75,0,0,1-.29-.12c.39,0,.78-.07,1.18-.07a13.88,13.88,0,0,0,5-.79,5.55,5.55,0,0,0,3.22-2.56l.08-.19s0,0,0-.09a9,9,0,0,1-6.35,3.23,21.63,21.63,0,0,1-6.41-.06,30.82,30.82,0,0,1-4.16-1.11,51.22,51.22,0,0,1-7.29-2.92c-1.91-.95-3.84-1.88-5.68-3a46.24,46.24,0,0,1-4.12-2.83c-.94-.69-1.83-1.46-2.7-2.23a24,24,0,0,1-4.08-4.52,12.85,12.85,0,0,1-2.05-4.35A7.23,7.23,0,0,1,455.2,20.66Zm-2.71,5.24a.66.66,0,0,1,.1.21A14.46,14.46,0,0,0,455.76,33a33.22,33.22,0,0,0,6.09,5.89,68.51,68.51,0,0,0,5.78,3.91A42.33,42.33,0,0,0,474.23,46a44.45,44.45,0,0,0,9.51,2.69,25.61,25.61,0,0,0,7.05.2c.86-.1,1.21.14,1.41,1l-.63-.61a11.92,11.92,0,0,0-1.62,0,29.91,29.91,0,0,1-11.13-1A44.05,44.05,0,0,1,468.9,44a50.91,50.91,0,0,1-10.45-7.48,21.87,21.87,0,0,1-5.07-6.65,10.39,10.39,0,0,1-1-3.3A3.21,3.21,0,0,1,452.49,25.9ZM492,48.76l2.25-.61a5.64,5.64,0,0,1-1.57,2.12Zm-2.31,1.67c-1-.5-2.26-.28-3.44-.49-.51,1.44-.81,2.88-2.3,3.77a8.32,8.32,0,0,0,2.6-.18c.22,0,.44-.06.67-.08a4.05,4.05,0,0,1-2.18.67,15.26,15.26,0,0,1-5-.46,9.79,9.79,0,0,1-2.93-1.09c-.65-.38-1.18-.85-1.08-1.61a1.85,1.85,0,0,1,1.4-1.49,7.33,7.33,0,0,1,3-.29c1.8.14,3.59.32,5.39.47l3,.23a2,2,0,0,1,1.42.53,1.2,1.2,0,0,1-.76,1.43C489.53,51.39,490,51,489.64,50.43Zm-.91,1.82a3.81,3.81,0,0,1-1.18.74,7,7,0,0,1-2.88.52,7.94,7.94,0,0,0,1.68-3.35,14.48,14.48,0,0,1,3.2.44C489.67,51.39,489.15,51.82,488.73,52.24Zm-30.48-9.75a15.6,15.6,0,0,0,.92,1.35c.06.08.13.15.25.31-1.59-.54-6.41-5.29-6.94-6.78l.35.15a1.28,1.28,0,0,0,1.8-.68,2.42,2.42,0,0,0-.11-1.9,1.7,1.7,0,0,1-.17-.58,2.28,2.28,0,0,0,2,.89l3.3,3.32-.55,1c-.26.48-.51,1-.8,1.43A1.41,1.41,0,0,0,458.24,42.49Zm1.41-.23a1.64,1.64,0,0,1,2-1.42,5.23,5.23,0,0,1,2,.61l4.26,2.28h0c1.09.58,2.18,1.14,3.25,1.74s2.08,1.21,3.11,1.83a4.64,4.64,0,0,1,.67.51,1.68,1.68,0,0,1-.61,3,5.34,5.34,0,0,1-2.91.14,14.18,14.18,0,0,1-3.54-1.14,24.73,24.73,0,0,1-7-4.62,6.33,6.33,0,0,1-1.17-1.67A2.15,2.15,0,0,1,459.65,42.26ZM425.32,72.58l1-1.55,4.25-7.68q1.43-2.64,2.89-5.27c0-.06.1-.09.18-.17a1.71,1.71,0,0,1,.17.3A21,21,0,0,0,438.68,66a37.5,37.5,0,0,0,5.88,5,48.29,48.29,0,0,0,6.82,3.91,46.3,46.3,0,0,0,15.07,4.2,21.54,21.54,0,0,0,6.12-.16c.13,0,.27,0,.5,0a4.22,4.22,0,0,1-.21.47c-2.87,4.57-5.71,9.16-8.62,13.7a8.59,8.59,0,0,1-5.64,3.69,18.6,18.6,0,0,1-7.1,0,44.45,44.45,0,0,1-13.65-5,33.35,33.35,0,0,1-8.17-6.35,18.75,18.75,0,0,1-4.58-8.36c-.13-.57-.18-1.15-.29-1.73A3.68,3.68,0,0,1,425.32,72.58Zm30.79,27.91-.49-.29c-.45-.26-.62-.56-.36-.88,0,0,.16-.23.66-.23a1.92,1.92,0,0,1,.82.14v.5h-.05a.83.83,0,0,0-.77-.59c-.34,0-.47.39-.05.64l.49.3c.42.26.6.58.36.9,0,0-.15.24-.66.24a1.58,1.58,0,0,1-.87-.18v-.57h.05a.91.91,0,0,0,.82.7C456.4,101.18,456.5,100.75,456.12,100.49Zm-3.5.56v.05l-1-.06V101c.48,0,.53-.67.53-.67l.06-.92-.11-.15c-.19-.25-.28-.22-.36-.23V99l.78,0,1.18,1.55.05-.72s.05-.7-.39-.73v-.05l1,.06v.05c-.48,0-.52.67-.52.67l-.09,1.33h-.17l-1.27-1.71-.06.87S452.18,101,452.62,101Zm-2.86-1.33s.48.06.56-.24h.05l-.1.66h-.05c0-.31-.46-.37-.46-.37l-.11,0-.15,1,.11,0s.83.11,1.06-.46h.05l-.1.64-1.77-.24v0c.13,0,.21-.13.24-.33l.19-1.26c0-.18,0-.36-.13-.38v0l1.73.23-.09.56h-.05c0-.52-.85-.63-.85-.63h-.11l-.15.95Zm-2.2.5a.52.52,0,0,0,.39.28v0l-.49-.1c-.33-.07-.38-.17-.6-.68l-.22-.47.55-.39s.67-.45.12-.58v0l1,.22v0c-.21,0-.43-.08-1.29.57Zm-1.09,0v0l-.9-.19v0c.13,0,.25-.06.3-.26l.33-1.37c0-.18,0-.28-.16-.3v0l.94.2v0a.24.24,0,0,0-.33.2l-.33,1.37C446.26,100,446.34,100.16,446.47,100.19Zm-1.59-1.38a1.07,1.07,0,0,1-1.4.69,1,1,0,0,1-.69-1.32,1.1,1.1,0,0,1,1.41-.71A1,1,0,0,1,444.88,98.81Zm-3.13-2.11-.06,0L441,98.22a.27.27,0,0,0,.12.38l0,0-.92-.37,0,0a.3.3,0,0,0,.38-.18l.71-1.54-.06,0s-.63-.23-.87.25l0,0,.25-.55,1.93.77-.25.55,0,0C442.37,97,441.75,96.7,441.75,96.7Zm-5.07-.16s.73.4,1.14-.06l0,0-.35.55L436,96.2l0,0c.12.06.27,0,.38-.18l.76-1.2a.22.22,0,0,0-.07-.35l0,0,.87.48,0,0a.27.27,0,0,0-.4.09l-.94,1.48ZM434.23,95s.69.46,1.14,0l0,0-.4.52-1.47-1,0,0c.11.07.27,0,.39-.15l.87-1.13a.22.22,0,0,0,0-.35l0,0,.82.55,0,0a.27.27,0,0,0-.41.05L434.14,95Zm-3.83-3.41a.38.38,0,0,0,0,.45l0,0-.2-.2c-.39-.38-.33-.33,0-.92a.39.39,0,0,0,0-.48l-.1-.1-.46.41c-.16.14-.17.28-.08.37l0,0-.64-.62,0,0c.09.09.24.08.4-.06l1.09-1c.14-.13.14-.24,0-.34l0,0,.55.53c.44.43.69.77.31,1.12s-.55.18-.85,0C430.63,90.9,430.71,91.17,430.41,91.64ZM428.29,90l0,0-.31-.37c-.21-.25-.19-.35,0-.88.09-.29.15-.49.15-.49h.69s.83,0,.49-.38l0,0,.66.76,0,0c-.13-.15-.28-.31-1.39-.3l-.33,1.17A.46.46,0,0,0,428.29,90Zm-.95-1.1,0,0-.58-.67,0,0c.08.1.24.09.4,0l1.18-.88c.15-.11.17-.23.08-.33l0,0,.6.7,0,0a.25.25,0,0,0-.39,0l-1.18.88C427.29,88.62,427.26,88.76,427.35,88.86Zm-1.63-3.37s-.64.38-.4.73l0,0-.53-.75,0,0c.26.37.9,0,.9,0l.83-.51.06-.18c.1-.29,0-.34,0-.41l0,0,.43.61-.62,1.8.65-.39s.64-.38.39-.72l0,0,.53.75,0,0c-.26-.38-.89,0-.89,0l-1.2.73L425.8,87l.7-2Zm-1.37-.75,0,0-.43-.75,0,0c.12.2.34-.08.34-.08l.16-.18-.35-.62s-.62.1-.36.5l0,0-.37-.64,0,0c0,.07.06.14.87.07l1.54-.18,0,0-1.35,1.52C424.25,84.63,424.32,84.68,424.35,84.75Zm7.43,7.18a1.14,1.14,0,0,1,1.59-.15,1,1,0,0,1,.07,1.49,1.11,1.11,0,0,1-1.57.13A.94.94,0,0,1,431.78,91.93Zm-9.54-11.2c.05.12.25.09.45,0l1.26-.5c.18-.07.36-.19.31-.31h0l.3.66c.17.38.35.73-.16.93a.6.6,0,0,1-.73-.29.55.55,0,0,1-.25.83c-.51.2-.7-.18-.92-.65l-.3-.66Zm52.05-1.42-3.59,6.22c-.67,1.17-1.33,2.34-2,3.51-.93,1.65-1.88,3.29-2.8,4.94q-2.51,4.51-5,9a2.23,2.23,0,0,1-.89.86,17.27,17.27,0,0,1-4.23,1.71,24.72,24.72,0,0,1-11.79.09,39.91,39.91,0,0,1-11.87-4.81,29.18,29.18,0,0,1-9-8,16.73,16.73,0,0,1-3.4-9.71,4.54,4.54,0,0,1,.95-2.35s0-.08,0,0a19.39,19.39,0,0,0,4.7,10.07,31.51,31.51,0,0,0,6.23,5.56,38.55,38.55,0,0,0,5.63,3.28,36.77,36.77,0,0,0,4.27,1.63,38.29,38.29,0,0,0,8.28,1.77,19.56,19.56,0,0,0,7.09-.47,10.42,10.42,0,0,0,3-1.3,2,2,0,0,0,.57-.58q6.69-10.82,13.37-21.65a1.18,1.18,0,0,1,1-.71C474.62,78.77,474.45,79,474.29,79.3Zm2.7-5.53a2.86,2.86,0,0,1-1,1,12.26,12.26,0,0,1-6.35,1.78,25.57,25.57,0,0,1-7.75-1.13,42.86,42.86,0,0,1-9.79-4.11,37.83,37.83,0,0,1-3.75-2.63A42.46,42.46,0,0,1,442.11,63a22.24,22.24,0,0,1-3.45-5,10.25,10.25,0,0,1-.9-7.59,12.51,12.51,0,0,1,1.54-3.17c.87-1.35,1.68-2.73,2.51-4.09l6.31-10.6a13.78,13.78,0,0,0,.81-1.29,2.22,2.22,0,0,1,.12.36,16,16,0,0,0,3.37,8A31.32,31.32,0,0,0,459.13,46a40.71,40.71,0,0,0,7,4.15,61.71,61.71,0,0,0,8.55,3.25A36,36,0,0,0,483.23,55c1,0,2.07-.05,3.1-.08.4,0,.8,0,1.1,0a.85.85,0,0,1,.33,1.12,8.52,8.52,0,0,1-.7,1.39c-.89,1.41-1.84,2.79-2.72,4.21q-2.79,4.49-5.52,9Q477.88,72.19,477,73.77Zm20.72-29c-1.34,2.13-2.63,4.29-4.06,6.36-1.54,2.22-3.23,4.35-4.83,6.54-1,1.35-1.95,2.73-2.92,4.09-1.11,1.55-2.22,3.1-3.32,4.65q-.94,1.32-1.84,2.66c-.75,1.1-1.47,2.21-2.23,3.31a10.77,10.77,0,0,1-.69.83l-.15-.09c.15-.24.29-.48.44-.72,1.08-1.6,2.16-3.18,3.23-4.78s2.27-3.44,3.41-5.15c1.75-2.61,3.52-5.19,5.25-7.81.62-.93,1.13-1.92,1.69-2.89a1.31,1.31,0,0,1,.2-.35,25.88,25.88,0,0,0,2.52-3l.69-.82a3.18,3.18,0,0,0-.38.09,18.52,18.52,0,0,1-8.08,1.12,35.49,35.49,0,0,1-8.26-1.55,48.75,48.75,0,0,1-8.93-3.61,55.08,55.08,0,0,1-6.66-4.27,37.78,37.78,0,0,1-5.2-4.54,19,19,0,0,1-4.26-6.57,9.43,9.43,0,0,1-.58-3.17,1.91,1.91,0,0,1,.27-1c.46-.76.89-1.54,1.33-2.31a1.18,1.18,0,0,1,.21-.2c.05.1.1.15.1.21a10.92,10.92,0,0,0,1.71,5.9,25.07,25.07,0,0,0,4.94,5.84,52.16,52.16,0,0,0,4.2,3.38,35.51,35.51,0,0,0,4.7,2.88,61.89,61.89,0,0,0,11.38,4.75,29.74,29.74,0,0,0,9.23,1.36,13.14,13.14,0,0,0,6.82-1.95,2.08,2.08,0,0,1,.31-.15s0,0,.14.07A6,6,0,0,1,497.71,44.8ZM433,92.93c.57-.61.6-.89.31-1.11s-.57-.17-1.15.44-.57.87-.29,1.1S432.45,93.55,433,92.93Zm27-63.52-.17-.2.15.2Zm24.92,13.5H485l-.1,0Z"/><path class="cls-76" d="M457.06,6.43q-1.38,0-2.75.06c-4,4.95-7.94,9.88-10.86,14,0,0,13.3-8.66,21.92-13.43A58.48,58.48,0,0,0,457.06,6.43Z"/><path class="cls-77" d="M459.81,112.74q1.33,0,2.64-.06c3.88-4.74,7.61-9.47,10.41-13.38,0,0-12.75,8.3-21,12.87A56.06,56.06,0,0,0,459.81,112.74Z"/></svg>